<?xml version="1.0" encoding="utf-8"?>
<!-- Generator: Adobe Illustrator 17.0.0, SVG Export Plug-In . SVG Version: 6.00 Build 0)  -->
<!DOCTYPE svg PUBLIC "-//W3C//DTD SVG 1.1//EN" "http://www.w3.org/Graphics/SVG/1.1/DTD/svg11.dtd">
<svg version="1.1" id="Layer_1" xmlns="http://www.w3.org/2000/svg" xmlns:xlink="http://www.w3.org/1999/xlink" x="0px" y="0px"
	 width="595.276px" height="841.89px" viewBox="0 0 595.276 841.89" enable-background="new 0 0 595.276 841.89"
	 xml:space="preserve">
<g>
	<path fill="#F7901E" d="M147.639,387.9c0,0-24.658,54.487,27.84,89.485c0,0,49.316,29.829,89.883-16.703
		c0,0-66.02,38.578-102.211-11.136c0,0,37.782,43.987,83.122,5.886c0,0-50.112,38.129-83.122-18.082c0,0-2.495-8.922-1.122-26.376
		l24.514,34.517l38.244-57.59h-13.625l-24.422,33.467L163.008,387.9H147.639z"/>
	<path fill="#ED1F24" d="M157.13,373.739c0,0,64.349-38.651,101.538,11.491c0,0-35.726-43.039-83.778-4.805
		c0,0,30.921-26.534,64.558-5.015c0,0,22.355,11.283,20.892,34.891h-35.726v-15.042l-13.452,20.683v30.921h13.452v-22.355h35.795
		v22.355h14.348c0,0,18.386-35.727-7.939-71.453c0,0-19.012-28.205-56.619-27.996C210.197,347.414,174.68,348.459,157.13,373.739"/>
	<g opacity="0.08">
		<path d="M224.968,414.3h2.204l0.839,3.283l0.841-3.283h2.194v5.398h-1.367v-4.12l-1.055,4.12h-1.236l-1.053-4.12v4.12h-1.367
			V414.3z"/>
		<path d="M235.424,418.808h-1.889l-0.272,0.891h-1.704l2.031-5.398h1.828l2.023,5.398h-1.748L235.424,418.808z M235.07,417.636
			l-0.586-1.939l-0.592,1.939H235.07z"/>
		<path d="M240.225,414.3h1.672v2.934c0,0.616-0.055,1.085-0.164,1.406c-0.109,0.322-0.328,0.594-0.658,0.817
			c-0.33,0.224-0.752,0.335-1.268,0.335c-0.544,0-0.966-0.074-1.265-0.222c-0.299-0.148-0.53-0.363-0.693-0.648
			c-0.163-0.284-0.259-0.635-0.288-1.054l1.594-0.218c0.002,0.239,0.022,0.416,0.061,0.532c0.039,0.115,0.105,0.209,0.198,0.28
			c0.063,0.047,0.154,0.07,0.271,0.07c0.186,0,0.321-0.069,0.408-0.208c0.087-0.139,0.131-0.372,0.131-0.701V414.3z"/>
		<path d="M243.022,414.3h1.672v1.883h1.82V414.3h1.68v5.398h-1.68v-2.188h-1.82v2.188h-1.672V414.3z"/>
		<path d="M252.61,418.808h-1.889l-0.271,0.891h-1.705l2.031-5.398h1.828l2.023,5.398h-1.748L252.61,418.808z M252.258,417.636
			l-0.587-1.939l-0.592,1.939H252.258z"/>
		<path d="M255.192,419.698V414.3h2.777c0.516,0,0.909,0.044,1.182,0.133c0.271,0.088,0.491,0.252,0.658,0.492
			c0.167,0.239,0.25,0.531,0.25,0.875c0,0.3-0.064,0.559-0.191,0.776c-0.128,0.217-0.303,0.394-0.526,0.529
			c-0.143,0.086-0.338,0.157-0.585,0.213c0.198,0.066,0.343,0.133,0.434,0.199c0.062,0.044,0.15,0.138,0.267,0.283
			c0.117,0.145,0.194,0.256,0.234,0.334l0.806,1.564h-1.888l-0.887-1.647c-0.112-0.213-0.212-0.352-0.299-0.415
			c-0.12-0.083-0.255-0.125-0.405-0.125h-0.146v2.188H255.192z M256.872,416.487h0.697c0.075,0,0.222-0.025,0.438-0.073
			c0.109-0.022,0.198-0.078,0.268-0.169c0.069-0.091,0.104-0.194,0.104-0.312c0-0.174-0.055-0.307-0.164-0.4
			c-0.109-0.093-0.315-0.14-0.617-0.14h-0.727V416.487z"/>
	</g>
</g>
</svg>
